<?xml version="1.0" encoding="UTF-8"?>
<svg version="1.1" xmlns="http://www.w3.org/2000/svg" width="128" height="128">
<path d="M0 0 C5.06237603 0 7.48507257 1.90810765 10.94580078 5.25244141 C11.52056152 5.82913574 12.09532227 6.40583008 12.6875 7 C13.9258971 8.19789031 15.16680525 9.39318988 16.41015625 10.5859375 C17.01875488 11.17213867 17.62735352 11.75833984 18.25439453 12.36230469 C20.6141782 14.57621082 23.09685911 16.60689044 25.625 18.625 C29.55888147 21.77441243 33.31264681 25.06784331 37 28.5 C40.73325033 31.97421336 44.5237138 35.30068926 48.5 38.5 C53.01858176 42.1356405 57.27983329 45.96836402 61.52172852 49.91625977 C64.7329905 52.88715628 68.02627815 55.69961077 71.4375 58.4375 C76.21621628 62.28110057 80.69157687 66.36960164 85.16381836 70.55834961 C88.51099327 73.67553945 91.93005023 76.63573798 95.5 79.5 C99.79898055 82.98617477 104.03747636 86.52571444 108.1875 90.1875 C108.765 90.67476563 109.3425 91.16203125 109.9375 91.6640625 C112.78523441 94.22078756 113.94514239 95.49212472 114.36328125 99.36328125 C114.24339844 100.23339844 114.12351562 101.10351562 114 102 C110.87109375 102.8125 110.87109375 102.8125 107 103 C104.62180313 101.37975749 103.00562021 100.03534049 101.0625 98 C100.02244571 96.98405724 98.98208044 95.96843276 97.94140625 94.953125 C97.44141113 94.45103516 96.94141602 93.94894531 96.42626953 93.43164062 C94.49253347 91.49062244 92.51668012 89.60459181 90.5 87.75 C89.9121875 87.18796875 89.324375 86.6259375 88.71875 86.046875 C87.08333508 84.82036521 87.08333508 84.82036521 85.2421875 85.140625 C81.35203074 86.63162585 77.50152336 88.207524 73.6640625 89.828125 C59.72180094 95.56244226 46.45230758 93.33645548 32.90234375 87.71484375 C20.59303393 82.01285378 4.94459394 70.12957793 -2 58 C-2.5409264 54.32072582 -2.43789531 52.65114929 -0.34765625 49.54296875 C0.78349609 48.37701172 0.78349609 48.37701172 1.9375 47.1875 C2.75476563 46.33414063 3.57203125 45.48078125 4.4140625 44.6015625 C5.26742188 43.74304687 6.12078125 42.88453125 7 42 C7.81210938 41.16210938 8.62421875 40.32421875 9.4609375 39.4609375 C16.3316789 32.4532378 16.3316789 32.4532378 20 30 C20.66 30 21.32 30 22 30 C16.92810729 23.17917877 10.1998123 18.23872672 3.5078125 13.078125 C-1.85578445 8.7643424 -1.85578445 8.7643424 -2.625 4.6875 C-2 2 -2 2 0 0 Z M15.046875 46.82421875 C12.67729074 49.19718813 10.32541665 51.58378617 8 54 C13.06604874 66.14153581 29.08449332 76.09763517 40.5 81 C51.15699604 85.21595448 60.60503005 84.90957012 71.37109375 81.16796875 C73.91359692 80.0383871 75.86126891 78.76457955 78 77 C76.93283928 75.79794536 75.84561663 74.61367667 74.75 73.4375 C74.14671875 72.77621094 73.5434375 72.11492187 72.921875 71.43359375 C71.14059032 69.77463141 71.14059032 69.77463141 69.078125 70.16015625 C67.58106392 70.76517154 66.09376004 71.39453327 64.61328125 72.0390625 C58.66634761 74.22582734 51.3923792 74.00485304 45.5625 71.5 C41.28806614 68.95314983 38.8321263 65.58821284 37 61 C35.37554259 54.36323649 36.10308057 48.4902863 38 42 C36.69013727 40.83037314 35.3770374 39.66437056 34.0625 38.5 C33.33160156 37.8503125 32.60070312 37.200625 31.84765625 36.53125 C27.14878808 32.63705059 18.81860154 43.15248094 15.046875 46.82421875 Z M45 49 C44.05453698 52.6099497 43.84592751 54.57202086 45.125 58.125 C47.20719049 61.31769209 48.69169716 63.08853614 52 65 C54.85635115 65.43943864 57.06888091 65.2883068 60 65 C60.66 64.34 61.32 63.68 62 63 C59.73648522 60.84633423 57.46300268 58.70349021 55.1875 56.5625 C54.54490234 55.95083984 53.90230469 55.33917969 53.24023438 54.70898438 C52.61826172 54.12568359 51.99628906 53.54238281 51.35546875 52.94140625 C50.78465576 52.40201416 50.21384277 51.86262207 49.62573242 51.30688477 C47.9190323 49.77972353 47.9190323 49.77972353 45 49 Z " fill="#000000" transform="translate(8,9)"/>
<path d="M0 0 C22.25482105 17.63168488 22.25482105 17.63168488 23.7421875 25.90234375 C23.05152236 30.09865773 20.88520203 32.26631896 17.9765625 35.16015625 C17.48542969 35.67191406 16.99429688 36.18367188 16.48828125 36.7109375 C15.08371257 38.16794341 13.65559275 39.60213429 12.2265625 41.03515625 C11.51371094 41.80988281 10.80085938 42.58460937 10.06640625 43.3828125 C8.2265625 45.03515625 8.2265625 45.03515625 5.0390625 45.34765625 C2.2265625 45.03515625 2.2265625 45.03515625 1.2265625 44.03515625 C0.85546875 41.296875 0.85546875 41.296875 1.2265625 38.03515625 C3.37890625 35.3671875 3.37890625 35.3671875 6.1640625 32.84765625 C10.02701903 29.49089503 10.02701903 29.49089503 12.2265625 25.03515625 C0.37838665 12.41845007 -14.04147649 -1.14320523 -32.31640625 -2.09765625 C-37.88339749 -2.08121019 -43.26350732 -1.7822737 -48.77734375 -0.98828125 C-49.43605469 -0.98054688 -50.09476563 -0.9728125 -50.7734375 -0.96484375 C-52.7734375 -2.96484375 -52.7734375 -2.96484375 -52.8984375 -5.58984375 C-52.8571875 -6.37359375 -52.8159375 -7.15734375 -52.7734375 -7.96484375 C-35.64453318 -17.12681583 -15.02684968 -10.64578224 0 0 Z " fill="#000000" transform="translate(98.7734375,37.96484375)"/>
</svg>
