<?xml version="1.0" encoding="UTF-8"?>
<svg version="1.1" xmlns="http://www.w3.org/2000/svg" width="128" height="128">
<path d="M0 0 C8.11227662 6.37919366 19.38256204 15.86616287 21.875 26.0625 C20.77410263 31.16666053 17.56178924 34.37581606 14.1875 38.25 C13.51203125 39.06984375 12.8365625 39.8896875 12.140625 40.734375 C-1.57610526 56.85403611 -19.50126273 66.34823945 -40.4453125 68.5234375 C-61.46607889 69.42531857 -78.66373643 58.6686631 -93.890625 45.4453125 C-99.23136104 40.41732227 -106.04725587 33.67664296 -107.3203125 26.3125 C-106.65761086 22.31589935 -104.7704398 19.84938639 -102.25 16.8125 C-101.55729004 15.95338013 -101.55729004 15.95338013 -100.85058594 15.0769043 C-99.5236916 13.45064965 -98.17476691 11.84666399 -96.8125 10.25 C-96.24144531 9.57453125 -95.67039062 8.8990625 -95.08203125 8.203125 C-69.06771757 -19.88430879 -30.00977275 -22.60751223 0 0 Z M-87.8125 14.25 C-88.49441406 14.90484375 -89.17632812 15.5596875 -89.87890625 16.234375 C-92.786014 19.07472245 -95.51781605 21.87546478 -97.8125 25.25 C-95.64470742 30.00651577 -92.32189361 33.43362166 -88.8125 37.25 C-88.23628906 37.90355469 -87.66007812 38.55710938 -87.06640625 39.23046875 C-76.84651235 50.24158024 -62.45028972 58.45680986 -47.31640625 59.48828125 C-28.32423454 59.84591382 -13.90758834 53.50481909 -0.03515625 40.421875 C1.06505859 39.34679687 1.06505859 39.34679687 2.1875 38.25 C2.86941406 37.59515625 3.55132812 36.9403125 4.25390625 36.265625 C7.161014 33.42527755 9.89281605 30.62453522 12.1875 27.25 C10.01970742 22.49348423 6.69689361 19.06637834 3.1875 15.25 C2.61128906 14.59644531 2.03507812 13.94289063 1.44140625 13.26953125 C-8.77848765 2.25841976 -23.17471028 -5.95680986 -38.30859375 -6.98828125 C-58.58405464 -7.37007883 -73.37118073 0.138623 -87.8125 14.25 Z " fill="#000000" transform="translate(106.8125,37.75)"/>
<path d="M0 0 C7.44703451 5.28378909 10.78875516 12.23721629 12.375 21.09375 C12.82256823 27.91916558 10.24417599 34.83703196 6.33984375 40.33984375 C0.70552564 46.55263395 -6.60129821 49.94926546 -15 50.5 C-23.39870179 49.94926546 -30.70552564 46.55263395 -36.33984375 40.33984375 C-40.25008609 34.82870219 -42.79517862 27.93660791 -42.38671875 21.10546875 C-41.06345499 13.90103275 -38.8192242 7.68376582 -33 3 C-32.2575 2.29875 -31.515 1.5975 -30.75 0.875 C-20.90595273 -5.83685041 -10.33843801 -5.31218139 0 0 Z M-31 13.6875 C-33.60031196 18.3839818 -34.01696366 22.75680209 -33 28 C-30.91156388 33.4893298 -27.35635535 37.31470156 -22.23828125 40.1484375 C-17.33645539 42.01335554 -12.66354461 42.01335554 -7.76171875 40.1484375 C-2.64364465 37.31470156 0.91156388 33.4893298 3 28 C4.01696366 22.75680209 3.60031196 18.3839818 1 13.6875 C-2.48168182 8.8794632 -6.55879658 5.66745122 -12.45703125 4.5234375 C-20.55485999 4.05075318 -26.27871617 7.16763186 -31 13.6875 Z " fill="#000000" transform="translate(79,41)"/>
<path d="M0 0 C4.32036821 2.28725376 7.05893629 4.47085134 9 9 C9.58496307 12.92760919 9.18285914 14.65459941 7.3125 18.1875 C4.20635319 21.96524611 1.93140988 23.71234321 -2.9375 24.4375 C-7.84987178 23.7357326 -10.83385818 21.47711298 -13.875 17.625 C-15.25784626 14.39835874 -15.49759088 12.48313618 -15 9 C-11.58746873 2.55410759 -7.52669289 -1.07524184 0 0 Z M-5 9 C-5.33 10.65 -5.66 12.3 -6 14 C-3.525 14.495 -3.525 14.495 -1 15 C-0.67 13.35 -0.34 11.7 0 10 C-1.65 9.67 -3.3 9.34 -5 9 Z " fill="#000000" transform="translate(67,52)"/>
</svg>
